<svg xmlns="http://www.w3.org/2000/svg" xmlns:xlink="http://www.w3.org/1999/xlink" width="12" height="13" viewBox="0 0 12 13" version="1.1">
  <g id="Canvas" transform="translate(-48980 30927)">
    <g id="Group 2">
      <g id="Rectangle 16.1">
        <mask id="mask0_outline_ins">
          <use xlink:href="#path0_fill" fill="white" transform="matrix(6.16605e-17 1 -1 6.08071e-17 48989.8 -30927)"/>
        </mask>
        <g mask="url(#mask0_outline_ins)">
          <use xlink:href="#path1_stroke_2x" transform="matrix(6.16605e-17 1 -1 6.08071e-17 48989.8 -30927)" fill="#203542"/>
        </g>
      </g>
      <g id="Rectangle 16">
        <use xlink:href="#path2_fill" transform="translate(48980 -30921.6)" fill="#F2F7FE"/>
        <mask id="mask1_outline_ins">
          <use xlink:href="#path2_fill" fill="white" transform="translate(48980 -30921.6)"/>
        </mask>
        <g mask="url(#mask1_outline_ins)">
          <use xlink:href="#path3_stroke_2x" transform="translate(48980 -30921.6)" fill="#203542"/>
        </g>
      </g>
    </g>
  </g>
  <defs>
    <path id="path0_fill" d="M 0 3.81818C 0 1.71679 1.70351 0 3.8049 0L 4.86177 0C 6.96315 0 8.66667 1.71679 8.66667 3.81818C 8.66667 5.91957 6.96315 7.63636 4.86177 7.63636L 3.8049 7.63636C 1.70351 7.63636 0 5.91957 0 3.81818Z"/>
    <path id="path1_stroke_2x" d="M 3.8049 2L 4.86177 2L 4.86177 -2L 3.8049 -2L 3.8049 2ZM 4.86177 5.63636L 3.8049 5.63636L 3.8049 9.63636L 4.86177 9.63636L 4.86177 5.63636ZM 3.8049 5.63636C 2.81714 5.63636 2 4.82408 2 3.81818L -2 3.81818C -2 7.01506 0.589883 9.63636 3.8049 9.63636L 3.8049 5.63636ZM 6.66667 3.81818C 6.66667 4.82408 5.84953 5.63636 4.86177 5.63636L 4.86177 9.63636C 8.07678 9.63636 10.6667 7.01506 10.6667 3.81818L 6.66667 3.81818ZM 4.86177 2C 5.84953 2 6.66667 2.81228 6.66667 3.81818L 10.6667 3.81818C 10.6667 0.621305 8.07678 -2 4.86177 -2L 4.86177 2ZM 3.8049 -2C 0.589883 -2 -2 0.621305 -2 3.81818L 2 3.81818C 2 2.81228 2.81714 2 3.8049 2L 3.8049 -2Z"/>
    <path id="path2_fill" d="M 0 1.08711C 0 0.486718 0.486718 0 1.08711 0L 10.9129 0C 11.5133 0 12 0.486718 12 1.08711L 12 6.49622C 12 7.09662 11.5133 7.58333 10.9129 7.58333L 1.08711 7.58333C 0.486718 7.58333 0 7.09662 0 6.49622L 0 1.08711Z"/>
    <path id="path3_stroke_2x" d="M 1.08711 2L 10.9129 2L 10.9129 -2L 1.08711 -2L 1.08711 2ZM 10 1.08711L 10 6.49622L 14 6.49622L 14 1.08711L 10 1.08711ZM 10.9129 5.58333L 1.08711 5.58333L 1.08711 9.58333L 10.9129 9.58333L 10.9129 5.58333ZM 2 6.49622L 2 1.08711L -2 1.08711L -2 6.49622L 2 6.49622ZM 1.08711 5.58333C 1.59129 5.58333 2 5.99205 2 6.49622L -2 6.49622C -2 8.20119 -0.617852 9.58333 1.08711 9.58333L 1.08711 5.58333ZM 10 6.49622C 10 5.99205 10.4087 5.58333 10.9129 5.58333L 10.9129 9.58333C 12.6179 9.58333 14 8.20119 14 6.49622L 10 6.49622ZM 10.9129 2C 10.4087 2 10 1.59129 10 1.08711L 14 1.08711C 14 -0.617852 12.6179 -2 10.9129 -2L 10.9129 2ZM 1.08711 -2C -0.617852 -2 -2 -0.617852 -2 1.08711L 2 1.08711C 2 1.59129 1.59129 2 1.08711 2L 1.08711 -2Z"/>
  </defs>
</svg>